<?xml version="1.0" standalone="no"?>
<!DOCTYPE svg PUBLIC "-//W3C//DTD SVG 20010904//EN"
 "http://www.w3.org/TR/2001/REC-SVG-20010904/DTD/svg10.dtd">
<svg version="1.0" xmlns="http://www.w3.org/2000/svg"
 width="500.000000pt" height="500.000000pt" viewBox="0 0 500.000000 500.000000"
 preserveAspectRatio="xMidYMid meet">

<g transform="translate(0.000000,500.000000) scale(0.100000,-0.100000)"
fill="#000000" stroke="none">
<path d="M1981 4285 c-211 -38 -397 -218 -467 -450 -22 -72 -27 -81 -79 -113
-58 -36 -180 -157 -231 -228 -148 -206 -133 -383 35 -424 78 -19 78 -18 32
-111 -55 -113 -86 -229 -106 -395 -27 -217 -8 -409 46 -485 39 -55 70 -64 218
-64 l133 -1 14 -33 c8 -19 13 -35 12 -36 -2 -1 -45 -22 -96 -45 l-93 -43 -167
12 c-92 6 -263 21 -379 33 l-213 21 -85 -28 c-47 -15 -85 -30 -85 -32 0 -3 53
-64 118 -137 64 -72 131 -147 148 -166 28 -31 31 -40 25 -75 -6 -36 -10 -40
-61 -60 l-55 -21 -3 -53 c-5 -80 49 -321 80 -358 7 -8 -14 -48 -70 -135 -82
-126 -126 -207 -119 -214 2 -2 30 5 62 16 32 11 69 20 81 20 15 0 48 23 91 65
l68 64 35 -33 c19 -18 49 -38 66 -45 28 -11 37 -10 72 8 39 20 40 20 91 1 28
-11 66 -20 84 -20 47 0 259 85 742 299 99 43 182 78 183 76 2 -2 -91 -129
-206 -282 -115 -153 -209 -279 -208 -280 0 -1 28 5 61 12 33 8 133 27 222 44
157 29 163 31 224 76 35 25 158 134 274 243 115 108 326 305 468 437 258 239
259 240 380 301 504 251 665 339 865 468 102 65 140 104 167 169 34 81 6 183
-63 230 -73 51 -142 67 -327 77 -130 7 -146 10 -226 44 -215 90 -438 112 -582
57 -29 -11 -108 -47 -177 -81 -69 -34 -153 -76 -188 -92 l-63 -31 -45 44 c-25
24 -70 74 -100 110 -52 64 -54 68 -54 127 0 52 3 63 23 77 12 8 71 47 130 86
158 102 257 196 447 427 13 16 29 22 58 22 53 0 121 38 143 79 10 19 29 46 43
60 22 23 25 34 24 105 0 68 -3 82 -22 101 -21 21 -30 22 -92 18 -83 -7 -121
-22 -54 -23 26 0 51 -5 58 -12 18 -18 14 -46 -7 -58 -27 -14 -104 -13 -120 3
-11 10 -13 9 -9 -3 6 -20 46 -40 80 -40 24 0 27 -4 33 -47 9 -67 12 -74 35
-80 20 -5 20 -6 3 -26 -22 -24 -90 -56 -121 -57 -20 0 -21 2 -11 21 6 13 10
54 7 101 l-3 81 -44 38 -43 38 104 111 c100 107 127 128 148 115 18 -11 10
-43 -25 -95 -20 -29 -33 -55 -30 -58 10 -10 42 28 65 78 29 61 18 100 -26 100
-28 0 -57 -26 -201 -182 -50 -55 -114 -107 -217 -178 -81 -55 -151 -100 -157
-100 -5 0 -3 13 5 28 19 36 46 170 46 224 0 48 -24 195 -39 246 -23 78 -96
166 -180 216 -161 97 -400 137 -600 101z m275 -29 c121 -18 239 -58 315 -107
l62 -41 -81 -32 c-103 -42 -150 -74 -232 -157 -75 -75 -134 -182 -150 -269
-26 -138 41 -259 176 -316 53 -23 40 -28 -21 -9 -11 3 -8 -1 8 -10 34 -20 185
-14 242 9 21 9 40 15 41 13 2 -2 -20 -21 -49 -42 -101 -75 -264 -117 -457
-117 -164 0 -283 27 -420 97 -70 35 -75 31 -10 -10 115 -73 255 -108 440 -107
74 0 154 6 195 15 38 9 71 14 73 12 5 -5 -110 -40 -183 -56 -133 -28 -314 -7
-439 51 -48 23 -151 108 -142 118 3 3 -10 22 -29 43 -64 71 -100 256 -76 394
32 182 144 364 276 450 116 75 275 99 461 71z m388 -267 c45 -36 69 -95 74
-185 4 -83 -17 -194 -38 -194 -6 0 -10 3 -10 8 0 17 -62 271 -76 315 -25 75
-4 98 50 56z m-382 -321 c-3 -108 8 -181 42 -273 6 -14 -1 -10 -23 12 -43 46
-65 129 -57 213 5 54 31 160 40 160 1 0 1 -51 -2 -112z m-785 -10 c-2 -60 -5
-74 -20 -80 -11 -5 -27 -2 -40 7 -12 8 -37 14 -57 14 -26 -2 -29 -3 -10 -6 27
-4 83 -42 63 -43 -6 0 -15 5 -18 10 -3 6 -18 10 -32 10 l-25 0 22 -18 23 -18
-35 -51 c-31 -45 -36 -48 -46 -33 -6 10 -27 22 -47 26 l-37 9 41 50 c41 50
199 195 213 195 4 0 6 -33 5 -72z m1885 55 c33 -30 18 -82 -32 -108 -54 -28
-71 -9 -24 28 22 17 25 26 21 59 -6 42 5 48 35 21z m-258 -78 c25 -16 40 -48
50 -100 l5 -30 -14 30 c-8 17 -14 35 -15 42 0 6 -14 25 -31 42 -33 34 -31 40
5 16z m-20 -24 c27 -30 45 -90 46 -152 0 -52 -4 -62 -46 -119 -25 -34 -81 -99
-123 -143 l-78 -81 5 56 c8 102 -38 207 -109 243 -46 24 -47 17 -2 -10 47 -28
93 -108 93 -159 -1 -27 -3 -23 -19 23 -10 29 -31 65 -46 80 l-27 26 26 -39
c33 -50 46 -97 46 -171 l-1 -60 -13 37 c-24 67 -101 178 -123 178 -4 0 5 -12
19 -27 31 -33 83 -135 91 -179 4 -20 1 -39 -8 -50 -13 -18 -14 -17 -15 11 -1
59 -76 192 -123 216 -15 9 -10 -1 17 -31 48 -53 84 -131 88 -190 3 -45 2 -45
-62 -93 -35 -26 -85 -61 -112 -77 l-48 -30 0 58 c0 37 -10 86 -30 142 -16 47
-30 95 -30 107 0 15 20 36 68 72 44 32 86 75 118 121 37 53 65 80 114 110 36
22 103 65 149 95 47 30 92 55 101 55 9 0 25 -9 34 -19z m299 -28 c-15 -41 -46
-74 -67 -71 -39 6 -30 41 17 64 54 27 58 28 50 7z m-727 -141 c-17 -34 -81
-92 -100 -92 -8 0 -19 7 -26 16 -11 12 -11 18 2 31 19 18 131 83 136 78 2 -2
-3 -16 -12 -33z m-1371 -6 c15 -22 12 -56 -6 -56 -4 0 -19 5 -32 11 -18 8 -30
8 -43 0 -17 -9 -15 -10 13 -11 40 0 48 -12 48 -77 0 -47 -3 -54 -26 -64 -15
-6 -39 -24 -55 -40 -22 -23 -25 -32 -16 -41 15 -15 16 -38 2 -38 -16 0 -50 80
-50 119 0 36 29 66 84 88 31 11 31 11 5 12 -15 1 -38 -8 -53 -20 -33 -26 -34
-9 -3 46 19 34 29 41 62 45 27 3 36 8 27 13 -7 5 -24 6 -38 3 -23 -6 -24 -5
-14 14 16 30 75 28 95 -4z m-3 -225 c9 -18 46 -47 90 -72 85 -49 111 -78 112
-128 1 -34 -1 -36 -28 -34 -27 2 -66 28 -66 43 0 4 12 19 26 34 29 29 21 35
-14 10 -21 -14 -27 -14 -70 2 -26 10 -49 19 -51 20 -2 2 7 17 19 35 23 31 23
31 2 20 -12 -6 -26 -20 -32 -31 -11 -20 -44 -27 -54 -12 -3 5 4 23 14 40 22
36 17 41 -13 15 -25 -22 -14 1 16 35 11 12 15 22 9 22 -6 0 -14 -4 -17 -10 -3
-5 -12 -10 -18 -10 -11 1 42 50 53 50 3 0 12 -13 22 -29z m1206 -51 c1 -17 13
-64 26 -104 23 -69 37 -189 24 -201 -3 -3 -9 16 -12 42 -11 75 -45 195 -67
232 -19 32 -19 34 -2 47 26 19 28 18 31 -16z m-504 -80 c108 -15 224 -1 350
41 70 23 91 27 97 17 20 -32 69 -292 69 -365 0 -23 -5 -20 -69 39 -75 72 -152
128 -173 128 -7 -1 1 -12 17 -25 35 -29 34 -30 -20 -10 -22 8 -53 14 -70 14
-21 -1 -13 -4 25 -13 87 -20 180 -66 103 -51 -16 3 -8 -2 17 -11 49 -18 123
-89 240 -229 66 -79 122 -134 169 -167 l23 -16 -27 -36 c-16 -21 -31 -59 -38
-95 -7 -35 -17 -61 -24 -61 -25 0 -229 71 -243 85 -10 10 -11 15 -2 15 19 0
91 70 117 114 13 23 26 59 29 81 6 36 4 33 -16 -20 -37 -98 -133 -181 -185
-160 -15 5 -13 9 13 20 58 24 126 138 123 204 0 9 -7 -6 -15 -33 -41 -131
-132 -197 -199 -144 -24 18 -27 27 -23 63 6 53 58 155 111 220 41 50 19 37
-35 -20 -41 -44 -90 -148 -92 -194 l-1 -40 -30 20 c-16 11 -61 36 -100 56
-102 52 -152 89 -182 134 -32 48 -44 44 -13 -5 27 -45 85 -95 152 -131 29 -16
94 -58 143 -93 50 -35 111 -76 137 -91 26 -14 48 -28 48 -31 -1 -11 -129 -91
-192 -120 -79 -35 -165 -50 -300 -50 -101 0 -230 22 -262 46 -17 12 -18 21 -7
151 6 76 23 201 36 278 53 298 54 338 10 385 l-24 25 34 71 33 72 80 -29 c45
-15 119 -33 166 -39z m-379 -73 c84 -42 95 -54 95 -107 0 -27 -15 -129 -34
-227 -44 -225 -55 -310 -60 -448 -5 -142 -12 -159 -70 -174 -47 -12 -194 -15
-243 -5 -37 7 -69 54 -91 131 -32 112 -19 445 24 618 23 93 72 201 99 215 37
20 46 4 22 -40 -21 -38 -21 -40 -4 -57 23 -24 139 -23 185 1 43 22 45 74 5
106 l-28 22 30 -8 c17 -4 48 -16 70 -27z m-65 -44 c0 -22 -57 -43 -120 -43
-51 0 -60 3 -60 18 0 37 14 44 53 26 30 -14 41 -15 63 -5 14 6 28 21 32 33 5
20 6 20 19 3 7 -11 13 -25 13 -32z m1964 -292 c56 -46 -42 -223 -210 -380 -43
-40 -95 -82 -116 -94 -21 -12 -38 -25 -38 -29 0 -3 17 -21 38 -38 32 -27 43
-31 81 -27 57 6 223 90 327 165 l81 59 -24 -42 c-37 -67 -74 -184 -80 -256 -7
-81 8 -129 49 -164 17 -14 29 -27 27 -29 -2 -2 -49 -26 -104 -54 -55 -27 -151
-77 -213 -111 -63 -34 -180 -88 -260 -120 -81 -33 -212 -87 -292 -121 -80 -34
-151 -64 -157 -67 -9 -3 -13 5 -13 24 0 29 -32 68 -74 90 -18 10 -18 11 5 23
13 7 26 16 29 20 3 5 32 28 66 53 71 52 141 142 173 221 29 70 23 125 -21 191
-32 48 -124 117 -173 129 -23 6 -25 11 -25 62 0 49 2 55 18 49 57 -22 150 -29
357 -29 166 1 207 14 229 74 3 8 13 26 23 38 16 24 16 24 -13 21 -16 -2 -50 1
-76 5 -52 9 -100 0 -77 -15 8 -5 25 -9 38 -9 40 0 85 -54 49 -58 -119 -11
-252 -11 -287 2 -43 14 -52 11 -25 -8 12 -9 7 -11 -25 -8 -36 4 -41 7 -41 29
0 54 31 133 58 150 15 9 46 29 70 46 49 33 104 41 110 16 1 -8 -9 -21 -23 -29
-38 -20 -30 -31 13 -16 93 33 187 26 226 -16 20 -21 33 -12 23 16 -14 35 -143
61 -206 41 -13 -4 -17 0 -17 17 1 18 -5 24 -28 26 -43 5 -68 -4 -120 -44 -44
-33 -50 -35 -72 -23 -13 7 -21 16 -17 20 10 10 422 205 449 212 40 12 271 2
288 -12z m152 -41 c38 -13 43 -27 51 -140 l6 -86 -69 -55 c-38 -31 -82 -65
-98 -75 l-30 -19 7 25 c37 136 44 261 21 362 l-6 27 43 -14 c24 -7 58 -19 75
-25z m154 -68 c-1 -4 -9 -23 -20 -42 l-19 -35 -1 53 c0 50 1 52 20 42 11 -6
20 -14 20 -18z m239 -33 c62 -16 122 -36 132 -45 19 -18 26 -64 10 -64 -5 0
-33 -25 -63 -56 -58 -61 -218 -172 -367 -254 -52 -28 -111 -63 -132 -76 -48
-30 -49 -25 -19 92 28 107 65 184 139 283 33 45 64 95 67 109 14 59 35 60 233
11z m-564 -156 c-27 -147 -31 -157 -68 -175 l-34 -16 29 109 c28 104 79 213
86 183 2 -7 -4 -53 -13 -101z m807 -125 c-43 -62 -75 -88 -187 -155 -165 -99
-424 -235 -437 -230 -7 2 12 16 42 32 186 94 536 325 589 389 28 33 22 6 -7
-36z m-1824 19 l31 -13 -42 -52 c-66 -83 -219 -173 -359 -212 -150 -42 -377
-37 -471 11 l-39 20 21 23 c12 12 21 28 21 35 0 10 10 12 38 7 137 -25 181
-28 317 -23 90 3 169 11 196 20 43 13 124 65 116 73 -2 3 -30 -9 -63 -26 -79
-40 -177 -53 -349 -47 -156 5 -245 21 -245 43 0 18 10 18 78 -3 82 -25 342
-25 427 1 76 22 187 77 245 121 25 18 46 34 46 34 1 1 16 -5 32 -12z m82 -77
c0 -47 -1 -50 -19 -40 -24 12 -31 13 -31 1 0 -5 37 -29 83 -55 45 -25 96 -57
112 -71 l30 -24 -41 -1 c-81 0 -259 -58 -279 -90 -3 -5 15 -1 40 10 87 37 244
68 284 55 10 -3 26 -16 34 -28 l14 -22 -81 0 c-83 -1 -174 -22 -211 -49 -15
-11 -4 -10 45 5 81 25 195 35 233 20 33 -13 36 -45 7 -101 -20 -39 -22 -40
-71 -40 -27 0 -77 9 -110 20 -34 12 -63 19 -66 17 -8 -8 81 -46 137 -58 30 -7
57 -14 59 -16 3 -2 -8 -16 -23 -32 -28 -29 -29 -29 -69 -15 -62 22 -135 73
-163 113 -16 23 -24 30 -24 18 0 -31 73 -99 142 -132 51 -25 65 -35 55 -43 -9
-8 -29 -3 -72 18 -76 37 -130 82 -168 139 -16 25 -27 38 -23 28 3 -10 6 -23 6
-28 0 -22 90 -104 158 -144 l73 -43 -40 -31 c-33 -26 -44 -30 -60 -22 -34 19
-129 12 -229 -15 -76 -21 -111 -25 -162 -21 -59 5 -63 4 -45 -10 27 -20 147
-11 233 17 64 20 135 24 182 11 l25 -7 -22 -12 c-14 -8 -41 -10 -75 -6 -35 4
-73 1 -113 -10 -89 -24 -225 -32 -249 -13 -18 13 -17 17 36 99 31 47 92 128
137 181 44 54 78 97 74 97 -3 0 4 11 17 25 35 38 3 31 -39 -7 -39 -38 -33 -22
17 42 57 72 59 76 25 49 -42 -32 -108 -120 -125 -165 l-13 -36 -155 4 c-173 5
-232 20 -313 82 -38 29 -112 114 -105 121 2 2 28 -4 58 -12 36 -11 101 -16
190 -17 172 -1 246 16 406 95 101 50 133 72 190 129 38 38 75 69 82 69 8 1 12
-15 12 -49z m-915 -304 c35 -46 117 -101 190 -127 50 -19 83 -22 197 -23 76
-1 134 -5 131 -10 -3 -5 -28 -38 -55 -73 -54 -72 -102 -161 -112 -210 -22
-100 114 -161 369 -164 l60 0 -40 -20 c-228 -110 -660 -308 -837 -384 l-220
-96 -42 25 c-56 33 -137 120 -174 185 l-31 54 140 145 c118 123 156 172 135
172 -3 0 -77 -34 -165 -75 -89 -41 -163 -75 -166 -75 -3 0 -5 6 -5 14 0 8 -5
18 -10 21 -7 4 -9 -3 -5 -22 l6 -28 -16 28 c-43 76 -90 353 -63 373 7 6 108
55 223 109 116 54 264 124 330 156 66 32 123 58 127 59 4 0 19 -15 33 -34z
m-755 -26 c246 -22 260 -25 260 -46 0 -19 -53 -18 -204 1 -65 9 -122 15 -128
13 -5 -2 36 -14 92 -27 57 -14 97 -28 92 -33 -5 -5 -74 -34 -153 -64 l-144
-54 -97 102 -96 103 51 17 c29 9 63 15 77 13 14 -3 126 -14 250 -25z m10 -324
c0 -24 3 -56 6 -72 5 -27 2 -31 -50 -57 -31 -15 -59 -27 -61 -27 -9 0 -5 108
5 134 8 21 68 64 93 66 4 0 7 -20 7 -44z m2173 -48 c-37 -35 -99 -93 -138
-129 -38 -36 -195 -181 -348 -322 -245 -226 -284 -258 -329 -272 -28 -8 -55
-12 -60 -9 -5 3 -17 0 -26 -8 -16 -14 -201 -73 -207 -66 -1 2 63 91 144 199
80 108 167 225 192 260 43 61 50 67 145 108 54 24 115 51 134 59 83 39 546
241 553 241 4 1 -23 -27 -60 -61z m-576 -30 c29 -11 53 -23 53 -28 0 -14 -41
-23 -94 -23 -31 1 -44 -2 -35 -8 21 -13 76 -11 114 5 37 16 45 13 45 -20 0
-27 -17 -34 -80 -34 -39 0 -58 7 -101 36 -70 47 -104 64 -126 64 -10 -1 -4 -7
17 -16 19 -8 58 -33 86 -55 29 -22 65 -44 81 -49 18 -6 -31 -8 -142 -6 -177 3
-245 17 -278 54 -22 26 -28 55 -13 74 11 16 19 16 67 6 47 -10 71 -8 159 9
116 23 166 22 247 -9z m-1733 -105 c7 -59 6 -63 -13 -63 -24 0 -35 -15 -27
-36 5 -12 10 -13 27 -4 25 14 26 14 34 -32 6 -29 4 -38 -6 -38 -34 -1 -41 -15
-28 -63 7 -28 17 -47 25 -47 19 0 18 -9 -5 -44 l-19 -28 -22 58 c-28 75 -58
213 -62 283 l-3 54 45 11 c25 7 46 12 46 11 1 0 4 -28 8 -62z m175 -59 c7 -26
11 -47 9 -48 -88 -42 -118 -54 -123 -47 -3 5 -8 29 -11 53 l-6 45 48 20 c27
12 54 22 60 22 7 1 17 -20 23 -45z m0 -203 c-12 -16 -204 -241 -273 -320 l-21
-23 25 7 c14 4 27 11 30 16 18 28 230 255 258 276 52 39 31 10 -116 -161 -102
-118 -142 -158 -172 -170 -22 -9 -47 -16 -54 -16 -9 0 30 71 96 176 l111 176
61 28 c74 35 71 34 55 11z m208 -209 l41 -48 -45 -28 c-49 -32 -57 -30 -121
22 l-34 28 54 36 c29 20 56 37 59 37 3 1 24 -21 46 -47z m-204 -84 l-27 -28
-21 20 -20 21 30 24 c27 23 31 23 47 8 18 -16 17 -18 -9 -45z m82 -18 c3 -6
-1 -13 -10 -16 -19 -8 -30 0 -20 15 8 14 22 14 30 1z"/>
<path d="M2340 4017 c-139 -110 -239 -293 -240 -439 0 -78 27 -161 66 -203 35
-38 40 -25 9 20 -57 86 -70 205 -32 316 34 99 83 175 174 266 45 46 81 83 80
83 -1 0 -27 -19 -57 -43z"/>
<path d="M1850 3683 c-128 -22 -200 -93 -200 -198 0 -113 99 -205 221 -205 82
0 170 126 153 220 -10 52 -49 125 -81 149 l-28 22 31 -15 c68 -33 112 -121 99
-195 -3 -20 -17 -61 -31 -91 l-24 -55 25 28 c32 36 48 98 43 169 -3 46 -11 66
-35 95 -48 60 -110 87 -173 76z m70 -52 c42 -30 74 -99 75 -161 0 -79 -10
-106 -52 -135 -73 -49 -181 -28 -229 45 -33 49 -44 141 -24 190 32 77 160 111
230 61z"/>
<path d="M1750 3563 c-55 -51 -56 -124 -2 -176 42 -40 82 -45 119 -13 58 49
52 128 -13 186 -43 37 -65 38 -104 3z m93 -18 c56 -57 59 -134 5 -164 -24 -14
-30 -14 -61 1 -40 19 -71 75 -61 112 8 34 49 76 72 76 11 0 31 -11 45 -25z"/>
<path d="M1808 3523 c12 -2 30 -16 39 -30 16 -24 16 -27 0 -54 -16 -30 -11
-39 11 -17 33 33 -4 109 -50 107 l-23 -2 23 -4z"/>
<path d="M1430 3020 c-8 -5 -11 -12 -7 -16 4 -4 13 -2 19 4 15 15 7 24 -12 12z"/>
<path d="M1741 3118 c1 -7 -3 -26 -10 -43 -22 -51 -30 -85 -21 -85 5 0 17 24
26 54 l17 54 31 -18 c154 -89 485 -84 606 9 41 33 15 34 -34 2 -69 -43 -133
-56 -281 -56 -146 1 -209 15 -288 65 -26 16 -47 24 -46 18z"/>
<path d="M2315 3003 c-50 -19 -244 -27 -348 -16 -42 5 -73 5 -69 1 17 -17 250
-30 333 -19 70 9 139 32 139 46 0 7 -9 5 -55 -12z"/>
<path d="M2083 2913 c9 -2 25 -2 35 0 9 3 1 5 -18 5 -19 0 -27 -2 -17 -5z"/>
<path d="M2243 2863 c9 -2 23 -2 30 0 6 3 -1 5 -18 5 -16 0 -22 -2 -12 -5z"/>
<path d="M1808 2795 c-15 -73 23 -184 84 -242 32 -31 150 -93 176 -93 27 0 9
16 -37 33 -128 45 -198 132 -210 260 -5 55 -8 65 -13 42z"/>
<path d="M2378 2613 c-44 -51 -90 -185 -69 -206 8 -8 11 -2 11 25 0 44 23 111
56 161 26 40 27 48 2 20z"/>
<path d="M1715 2463 c-9 -104 -2 -242 14 -271 15 -27 56 -55 73 -50 8 3 0 12
-19 21 -48 25 -58 68 -57 240 1 81 0 147 -2 147 -1 0 -5 -39 -9 -87z"/>
<path d="M2421 2469 c-12 -16 -33 -35 -47 -41 -13 -6 -24 -15 -24 -21 0 -16
62 30 82 62 26 40 19 40 -11 0z"/>
<path d="M1858 2393 c7 -3 16 -2 19 1 4 3 -2 6 -13 5 -11 0 -14 -3 -6 -6z"/>
<path d="M1918 2383 c12 -2 32 -2 45 0 12 2 2 4 -23 4 -25 0 -35 -2 -22 -4z"/>
<path d="M2063 2383 c15 -2 39 -2 55 0 15 2 2 4 -28 4 -30 0 -43 -2 -27 -4z"/>
<path d="M2008 2373 c7 -3 16 -2 19 1 4 3 -2 6 -13 5 -11 0 -14 -3 -6 -6z"/>
<path d="M2525 2324 c36 -27 125 -44 125 -24 0 6 -11 10 -23 10 -13 0 -46 7
-73 15 -43 12 -47 12 -29 -1z"/>
<path d="M1923 2143 c15 -2 37 -2 50 0 12 2 0 4 -28 4 -27 0 -38 -2 -22 -4z"/>
<path d="M1357 2859 c-28 -16 -56 -83 -78 -182 -27 -123 -37 -397 -18 -482 12
-53 14 -56 17 -27 2 18 7 30 11 28 4 -3 11 65 15 151 8 177 21 294 41 372 8
30 10 50 5 45 -24 -25 -47 -163 -66 -392 l-13 -167 4 155 c5 172 34 367 65
437 l20 45 100 -4 c112 -4 120 6 15 22 -86 12 -96 12 -118 -1z"/>
<path d="M1446 2601 c-10 -11 -16 -31 -14 -48 4 -39 47 -40 66 0 26 54 -14 91
-52 48z m41 -17 c2 -5 -3 -19 -11 -29 -21 -28 -43 -7 -26 25 11 21 31 23 37 4z"/>
<path d="M1418 2452 c-9 -9 -18 -28 -21 -42 -13 -55 -27 -216 -22 -242 6 -26
11 -28 51 -28 27 0 46 5 49 13 8 24 23 292 17 298 -18 17 -60 18 -74 1z"/>
<path d="M3225 2631 c-75 -23 -167 -59 -180 -72 -5 -6 15 -1 45 12 127 50 183
63 278 64 50 0 92 3 92 8 0 14 -175 6 -235 -12z"/>
<path d="M3046 2401 c-6 -10 26 -20 64 -21 14 0 43 -9 65 -20 l40 -19 5 22 c5
19 0 24 -40 34 -54 14 -127 17 -134 4z"/>
<path d="M3445 1839 c-388 -172 -525 -233 -672 -305 -95 -45 -173 -85 -173
-88 0 -8 28 4 220 94 85 40 276 126 424 191 242 106 310 140 281 139 -6 0 -41
-14 -80 -31z"/>
<path d="M2359 2174 c-83 -85 -183 -130 -367 -164 -91 -17 -93 -18 -44 -19
138 -3 338 77 430 172 30 30 50 57 45 60 -5 3 -34 -19 -64 -49z"/>
<path d="M1788 1867 c31 -37 121 -60 260 -65 81 -3 132 -1 132 5 0 6 -57 13
-127 16 -125 6 -204 21 -253 47 -23 12 -24 12 -12 -3z"/>
<path d="M2225 1698 c-60 -67 -98 -124 -93 -139 2 -7 13 3 24 22 11 19 41 59
65 89 25 30 48 61 53 68 16 26 -4 10 -49 -40z"/>
<path d="M1505 1829 c-11 -5 -85 -37 -165 -73 -213 -94 -400 -186 -400 -198 0
-6 10 -4 23 4 24 16 316 151 470 218 53 23 97 46 97 51 0 10 1 10 -25 -2z"/>
<path d="M1870 1115 c-240 -116 -594 -298 -560 -289 14 4 178 82 365 174 187
92 350 170 362 174 22 7 52 36 37 36 -5 -1 -97 -43 -204 -95z"/>
<path d="M2730 1270 c-17 -22 -124 -122 -238 -222 -243 -215 -277 -247 -269
-254 3 -4 43 27 88 67 46 41 128 114 183 163 188 166 304 286 278 286 -6 0
-24 -18 -42 -40z"/>
</g>
</svg>
